<svg xmlns="http://www.w3.org/2000/svg" width="220" height="87" fill="none"><g clip-path="url(#a)"><path fill="#999" d="M216.828 61.158c-2.115-2.337-4.653-4.249-6.557-6.798-16.285-22.73-39.55-33.989-65.353-40.15-8.883-2.124-19.035-1.911-28.129 0-26.014 5.1-49.702 15.933-70.217 32.928-5.922 4.885-10.998 11.046-15.228 18.056 2.326-.85 4.864-1.7 7.19-2.762 6.769-2.974 13.537-6.16 20.516-8.71 2.961-1.061 6.557-1.061 9.94-.849 1.27 0 3.173 1.912 3.385 3.187.211 1.274-1.058 3.61-2.115 3.823-17.978 5.523-33.629 16.145-49.914 25.28-5.71 3.186-9.306 2.336-11.844-3.4C2.37 67.532-.38 52.449.042 36.942c0-.425.846-1.062 2.115-2.337 12.479 4.674 8.672 18.27 14.805 29.103 1.48-2.55 2.538-4.673 3.807-6.373C47.418 24.407 82.738 6.988 123.768.615c6.134-1.062 12.902-.637 19.247.425 23.265 4.036 43.991 13.808 61.123 30.165 5.499 5.311 9.517 12.321 13.536 18.907 1.692 2.549 1.692 6.16 2.326 9.134l-3.172 1.912z"/></g><defs><clipPath id="a"><path fill="#fff" d="M220 87H0V0h220z"/></clipPath></defs></svg>