<svg xmlns="http://www.w3.org/2000/svg" width="500" height="500" fill="none"><rect width="500" height="500" fill="#fff" rx="100"/><path fill="#000" d="M160.272 190.66c-6.44-25.047 16.235-47.876 41.325-41.604a34.127 34.127 0 0 1 23.255 20.058l59.496 143.785c10.482 25.33-3.881 54.074-30.43 60.901-24.114 6.201-48.69-8.32-54.891-32.435L160.272 190.66zm144 0c-6.44-25.047 16.235-47.876 41.325-41.604a34.127 34.127 0 0 1 23.255 20.058l59.496 143.785c10.482 25.33-3.881 54.074-30.43 60.901-24.114 6.201-48.69-8.32-54.891-32.435L304.272 190.66z"/><rect width="80" height="80" x="74" y="290" fill="#000" rx="40"/></svg>