<svg id="Layer_1" data-name="Layer 1" xmlns="http://www.w3.org/2000/svg" viewBox="0 0 412.12 414.16"><defs><style>.cls-1{fill:#0eb3e7;}</style></defs><path class="cls-1" d="M81,102.79C66.74,95,59.14,86.61,60.6,72.15A12.77,12.77,0,0,1,73.32,60.79c50-.24,99.74-2,149.19.75,30.36,1.69,57.19,13.06,80.48,35,8.48,8,2.92,22.22-8.73,22.22H247.61a4.79,4.79,0,0,0-2.34,9l140.15,78.12a18,18,0,0,0,26.67-16.77C407.06,99.56,334,15.24,243.14,4.62,182.46-2.47,120.52,1.17,59.14.15,45.83-.07,32.52,0,18.27.06A18,18,0,0,0,.37,18.11C.49,48.88.81,78,0,107.06c-.38,14,4.41,22,16.68,28.59,46,24.84,91.55,50.61,137.22,76.11,49.42,27.6,98.81,55.27,149.22,83.48a12.82,12.82,0,0,1,3,20.13c-18.27,18.66-39.27,31.51-62.84,32.94-55.85,3.41-112,1.44-168.46,1.15A12.83,12.83,0,0,1,62,336.64V308.33A12.82,12.82,0,0,1,74.84,295.5h92a4.78,4.78,0,0,0,2.33-9c-52.68-29.38-105.44-58.79-159.8-89.09a4.89,4.89,0,0,0-7.27,4.26V396.08A18,18,0,0,0,20.05,414c53.72.07,106.16.34,158.58-.21,23.42-.24,47.44.16,70.11-4.71,65.45-14.06,112.53-50.82,142.63-108.7a22.5,22.5,0,0,0-8.72-29.8"/></svg>